<svg width="70" height="70" viewBox="0 0 70 70" fill="none" xmlns="http://www.w3.org/2000/svg">
<rect width="70" height="70" rx="26" fill="#614EF5"/>
<path d="M52.5898 42.1918V28.9141C52.5898 27.1477 51.15 25.7078 49.3836 25.7078H45.9102V18.9465C45.9102 17.7738 44.9527 16.8164 43.7801 16.8164H26.2051C25.0324 16.8164 24.075 17.7738 24.075 18.9465V25.7152H20.6164C18.85 25.7078 17.4102 27.1477 17.4102 28.9141V42.1918C17.4102 43.9582 18.85 45.398 20.6164 45.398H24.0824V51.0535C24.0824 52.2262 25.0398 53.1836 26.2125 53.1836H43.7875C44.9602 53.1836 45.9176 52.2262 45.9176 51.0535V45.398H49.3836C51.15 45.398 52.5898 43.9656 52.5898 42.1918ZM25.9008 18.9465C25.9008 18.7758 26.0418 18.6348 26.2125 18.6348H43.7875C43.9582 18.6348 44.0992 18.7758 44.0992 18.9465V25.7152H25.9008V18.9465ZM44.0992 51.0535C44.0992 51.2242 43.9582 51.3652 43.7875 51.3652H26.2125C26.0418 51.3652 25.9008 51.2242 25.9008 51.0535V36.4621H44.0918V51.0535H44.0992ZM45.0047 34.6437H24.9953C24.4906 34.6437 24.0824 35.052 24.0824 35.5566V43.5797H20.6164C19.852 43.5797 19.2285 42.9562 19.2285 42.1918V28.9141C19.2285 28.1496 19.852 27.5262 20.6164 27.5262H49.3762C50.1406 27.5262 50.7641 28.1496 50.7641 28.9141V42.1918C50.7641 42.9562 50.1406 43.5797 49.3762 43.5797H45.9102V35.5566C45.9176 35.052 45.5094 34.6437 45.0047 34.6437Z" fill="white"/>
<path d="M22.1231 30.4281C21.9524 30.5988 21.856 30.8289 21.856 31.0738C21.856 31.3113 21.9524 31.5488 22.1231 31.7195C22.2938 31.8902 22.5239 31.9867 22.7688 31.9867C23.0063 31.9867 23.2438 31.8902 23.4146 31.7195C23.5853 31.5488 23.6817 31.3113 23.6817 31.0738C23.6817 30.8363 23.5853 30.5988 23.4146 30.4281C23.0657 30.0867 22.4571 30.0867 22.1231 30.4281Z" fill="white"/>
<path d="M40.1583 43.0082H29.8418C29.3372 43.0082 28.929 43.4164 28.929 43.9211C28.929 44.4257 29.3372 44.8339 29.8418 44.8339H40.1508C40.6555 44.8339 41.0637 44.4257 41.0637 43.9211C41.0637 43.4164 40.6555 43.0082 40.1583 43.0082Z" fill="white"/>
<path d="M40.1583 47.1273H29.8418C29.3372 47.1273 28.929 47.5355 28.929 48.0402C28.929 48.5449 29.3372 48.9531 29.8418 48.9531H40.1508C40.6555 48.9531 41.0637 48.5449 41.0637 48.0402C41.0637 47.5355 40.6555 47.1273 40.1583 47.1273Z" fill="white"/>
<path d="M40.1583 38.8817H29.8418C29.3372 38.8817 28.929 39.2899 28.929 39.7945C28.929 40.2992 29.3372 40.7074 29.8418 40.7074H40.1508C40.6555 40.7074 41.0637 40.2992 41.0637 39.7945C41.0637 39.2899 40.6555 38.8817 40.1583 38.8817Z" fill="white"/>
</svg>
