<svg width="26" height="26" viewBox="0 0 26 26" fill="none" xmlns="http://www.w3.org/2000/svg">
<path d="M13 0C5.83151 0 0 5.83151 0 13C0 20.1685 5.83151 26 13 26C20.1685 26 26 20.1685 26 13C26 5.83151 20.1685 0 13 0Z" fill="#150544"/>
<path d="M19.5888 10.2451L12.5471 17.2867C12.3358 17.4979 12.0585 17.6042 11.7812 17.6042C11.5039 17.6042 11.2266 17.4979 11.0153 17.2867L7.49454 13.7659C7.07083 13.3424 7.07083 12.6576 7.49454 12.2341C7.91805 11.8104 8.6026 11.8104 9.02631 12.2341L11.7812 14.989L18.057 8.71335C18.4805 8.28964 19.1651 8.28964 19.5888 8.71335C20.0123 9.13686 20.0123 9.82141 19.5888 10.2451Z" fill="white"/>
</svg>
