<svg width="70" height="70" viewBox="0 0 70 70" fill="none" xmlns="http://www.w3.org/2000/svg">
<rect width="70" height="70" rx="26" fill="#614EF5"/>
<path d="M50.9124 43.2977V37.5012C50.9124 35.3266 49.146 33.5527 46.964 33.5527H23.0358C20.8612 33.5527 19.0874 35.3191 19.0874 37.5012V43.2977C19.0874 45.4723 20.8538 47.2461 23.0358 47.2461H30.3241L27.2812 51.7512C26.9991 52.1668 27.1105 52.7309 27.5261 53.0129C27.6819 53.1168 27.8601 53.1688 28.0308 53.1688C28.3202 53.1688 28.6097 53.0277 28.7878 52.768L32.5136 47.2461H37.6718L41.3976 52.768C41.5757 53.0277 41.8577 53.1688 42.1546 53.1688C42.3327 53.1688 42.5034 53.1168 42.6593 53.0129C43.0749 52.7309 43.1862 52.1668 42.9042 51.7512L39.8612 47.2461H46.9565C49.146 47.2461 50.9124 45.4797 50.9124 43.2977ZM20.9058 43.2977V37.5012C20.9058 36.3285 21.8632 35.3711 23.0358 35.3711H46.9714C48.144 35.3711 49.1015 36.3285 49.1015 37.5012V43.2977C49.1015 44.4703 48.144 45.4277 46.9714 45.4277H23.0358C21.8632 45.4277 20.9058 44.4703 20.9058 43.2977Z" fill="white"/>
<path d="M40.7594 26.116C41.0414 26.116 41.3234 25.9824 41.5015 25.7301C41.791 25.3219 41.6945 24.7504 41.2863 24.4609C39.4754 23.177 37.3379 22.4941 35.0965 22.4941C32.8551 22.4941 30.7175 23.177 28.9066 24.4609C28.4984 24.7504 28.4019 25.3219 28.6914 25.7301C28.9808 26.1383 29.5523 26.2348 29.9605 25.9453C31.4597 24.8766 33.241 24.3125 35.0965 24.3125C36.9594 24.3125 38.7332 24.8766 40.2324 25.9453C40.3957 26.0641 40.5812 26.116 40.7594 26.116Z" fill="white"/>
<path d="M35.0966 28.1348C34.102 28.1348 33.152 28.4391 32.3505 29.0031C31.9423 29.2926 31.8458 29.8641 32.1352 30.2723C32.4247 30.6805 32.9962 30.777 33.4044 30.4875C34.3915 29.7824 35.8016 29.7824 36.7962 30.4875C36.9595 30.5988 37.1376 30.6582 37.3231 30.6582C37.6052 30.6582 37.8872 30.5246 38.0653 30.2723C38.3548 29.8641 38.2583 29.2926 37.8501 29.0031C37.0411 28.4316 36.0911 28.1348 35.0966 28.1348Z" fill="white"/>
<path d="M44.7672 21.7148C45.0492 21.7148 45.3312 21.5812 45.5093 21.3289C45.7988 20.9207 45.7023 20.3492 45.2941 20.0597C42.3179 17.9519 38.7851 16.8312 35.0965 16.8312C31.4078 16.8312 27.8824 17.9519 24.8988 20.0672C24.4906 20.3566 24.3941 20.9281 24.6836 21.3363C24.973 21.7445 25.5445 21.841 25.9527 21.5515C28.6246 19.6515 31.7863 18.6496 35.1039 18.6496C38.414 18.6496 41.5758 19.6515 44.255 21.5515C44.4035 21.6629 44.589 21.7148 44.7672 21.7148Z" fill="white"/>
<path d="M43.8244 39.4902H34.7772C34.2725 39.4902 33.8643 39.8984 33.8643 40.4031C33.8643 40.9078 34.2799 41.3086 34.7772 41.3086H43.8244C44.3291 41.3086 44.7373 40.9004 44.7373 40.3957C44.7373 39.891 44.3291 39.4902 43.8244 39.4902Z" fill="white"/>
<path d="M27.3923 41.6426C28.0768 41.6426 28.6317 41.0877 28.6317 40.4031C28.6317 39.7186 28.0768 39.1637 27.3923 39.1637C26.7078 39.1637 26.1528 39.7186 26.1528 40.4031C26.1528 41.0877 26.7078 41.6426 27.3923 41.6426Z" fill="white"/>
</svg>
