<svg width="70" height="70" viewBox="0 0 70 70" fill="none" xmlns="http://www.w3.org/2000/svg">
<rect width="70" height="70" rx="26" fill="#614EF5"/>
<path d="M17.7292 43.8469C17.7292 47.3203 23.4812 49.9402 31.1109 49.9402C31.8382 49.9402 32.5656 49.918 33.2707 49.866C33.7679 49.8289 34.1464 49.3984 34.1167 48.8937C34.0796 48.3891 33.6492 48.018 33.1445 48.0476C32.4765 48.0922 31.7937 48.1219 31.1109 48.1219C24.2976 48.1219 19.5476 45.8656 19.5476 43.8469V40.0617C21.8261 41.8504 26.0566 43.0008 31.1109 43.0008C31.571 43.0008 32.0312 42.9933 32.4914 42.9711C32.996 42.9488 33.382 42.5258 33.3597 42.0211C33.3375 41.5164 32.9144 41.1305 32.4097 41.1527C31.9792 41.175 31.5414 41.1824 31.1109 41.1824C24.2976 41.1824 19.5476 38.9262 19.5476 36.9074V33.1297C21.8261 34.9184 26.0566 36.0687 31.1109 36.0687C38.7406 36.0687 44.4925 33.4488 44.4925 29.9754V23.0285C44.4925 19.5551 38.7406 16.9351 31.1109 16.9351C23.4812 16.9351 17.7292 19.5551 17.7292 23.0285V43.8469ZM31.1109 34.243C24.2976 34.243 19.5476 31.9867 19.5476 29.968V26.1828C21.8261 27.9715 26.0566 29.1219 31.1109 29.1219C36.1652 29.1219 40.3957 27.9715 42.6742 26.1828V29.968C42.6816 31.9941 37.9316 34.243 31.1109 34.243ZM31.1109 18.7461C37.9242 18.7461 42.6742 21.0023 42.6742 23.0211C42.6742 25.0398 37.9242 27.2961 31.1109 27.2961C24.2976 27.2961 19.5476 25.0473 19.5476 23.0285C19.5476 21.0098 24.2976 18.7461 31.1109 18.7461Z" fill="white"/>
<path d="M34.9036 44.3887C34.9036 49.1758 38.8001 53.0723 43.5872 53.0723C48.3743 53.0723 52.2708 49.1758 52.2708 44.3887C52.2708 39.6016 48.3743 35.7051 43.5872 35.7051C38.8001 35.7051 34.9036 39.5941 34.9036 44.3887ZM50.4524 44.3887C50.4524 48.1738 47.3723 51.2539 43.5872 51.2539C39.802 51.2539 36.7219 48.1738 36.7219 44.3887C36.7219 40.6035 39.802 37.5234 43.5872 37.5234C47.3723 37.5234 50.4524 40.5961 50.4524 44.3887Z" fill="white"/>
<path d="M41.6276 44.025C41.2713 43.6688 40.6999 43.6688 40.3436 44.025C39.9874 44.3813 39.9874 44.9528 40.3436 45.309L41.8799 46.8528C42.0581 47.0309 42.2881 47.1199 42.5256 47.1199C42.7557 47.1199 42.9858 47.0309 43.1639 46.8528L46.8303 43.2012C47.1866 42.8449 47.1866 42.2735 46.8303 41.9172C46.4741 41.561 45.9026 41.561 45.5464 41.9172L42.5256 44.9231L41.6276 44.025Z" fill="white"/>
</svg>
