<svg width="70" height="70" viewBox="0 0 70 70" fill="none" xmlns="http://www.w3.org/2000/svg">
<rect width="70" height="70" rx="26" fill="#614EF5"/>
<path d="M44.2773 40.2547H47.8992C48.4039 40.2547 48.8121 39.8465 48.8121 39.3418C48.8121 38.8371 48.4039 38.4289 47.8992 38.4289H44.2773V35.9945H50.7121C52.1 35.9945 53.2207 34.8664 53.2207 33.4859V30.8363C53.2207 30.3316 52.8125 29.9234 52.3078 29.9234C51.8031 29.9234 51.3949 30.3316 51.3949 30.8363V33.4859C51.3949 33.8644 51.0832 34.1762 50.7047 34.1762H44.2773V31.7418H47.8992C48.4039 31.7418 48.8121 31.3336 48.8121 30.8289C48.8121 30.3242 48.4039 29.916 47.8992 29.916H44.2773V26.5687C44.2773 26.0641 43.8691 25.6559 43.3645 25.6559H40.0172V22.1453C40.0172 21.6406 39.609 21.2324 39.1043 21.2324C38.5996 21.2324 38.1914 21.6406 38.1914 22.1453V25.6781H35.757V19.3324C35.757 17.9445 34.6289 16.8238 33.2484 16.8238H30.5988C30.0941 16.8238 29.6859 17.232 29.6859 17.7367C29.6859 18.2414 30.0941 18.6422 30.5988 18.6422H33.2484C33.627 18.6422 33.9387 18.9539 33.9387 19.3324V25.6707H31.5043V22.1453C31.5043 21.6406 31.0961 21.2324 30.5914 21.2324C30.0867 21.2324 29.6785 21.6406 29.6785 22.1453V25.6781H26.3312C25.8266 25.6781 25.4184 26.0863 25.4184 26.591V29.9383H22.1008C21.5961 29.9383 21.1879 30.3465 21.1879 30.8512C21.1879 31.3559 21.5961 31.7641 22.1008 31.7641H25.448V34.1836H19.2879C17.9 34.1836 16.7793 35.3117 16.7793 36.6922V39.3418C16.7793 39.8465 17.1875 40.2547 17.6848 40.2547C18.182 40.2547 18.5977 39.8465 18.5977 39.3492V36.6996C18.5977 36.3211 18.9094 36.0094 19.2879 36.0094H25.4406V38.4437H22.1008C21.5961 38.4437 21.1879 38.8519 21.1879 39.3566C21.1879 39.8613 21.5961 40.2695 22.1008 40.2695H25.448V43.6168C25.448 44.1215 25.8563 44.5297 26.3609 44.5297H29.7082V47.8769C29.7082 48.3816 30.1164 48.7898 30.6211 48.7898C31.1258 48.7898 31.534 48.3816 31.534 47.8769V44.5297H33.9684V50.6824C33.9684 52.0703 35.0965 53.191 36.477 53.191H39.1266C39.6313 53.191 40.0395 52.7828 40.0395 52.2781C40.0395 51.7734 39.6313 51.3652 39.1266 51.3652H36.477C36.0984 51.3652 35.7867 51.0535 35.7867 50.675V44.5223H38.2211V47.8695C38.2211 48.3742 38.6293 48.7824 39.134 48.7824C39.6387 48.7824 40.0469 48.3742 40.0469 47.8695V44.5223H43.3941C43.8988 44.5223 44.307 44.1141 44.307 43.6094V40.2547H44.2773ZM42.459 42.6891H27.259V27.4965H42.459V42.6891Z" fill="white"/>
<path d="M30.3392 40.5219H39.3864C39.8911 40.5219 40.2993 40.1137 40.2993 39.609V30.5691C40.2993 30.0645 39.8911 29.6562 39.3864 29.6562H30.3392C29.8345 29.6562 29.4263 30.0645 29.4263 30.5691V39.6164C29.4263 40.1211 29.8345 40.5219 30.3392 40.5219ZM31.2446 31.482H38.4735V38.7109H31.2446V31.482Z" fill="white"/>
</svg>
