<svg width="1440" height="552" viewBox="0 0 1440 552" fill="none" xmlns="http://www.w3.org/2000/svg">
<path opacity="0.5" fill-rule="evenodd" clip-rule="evenodd" d="M1476.53 370.131C1453.04 342.548 1407.55 301.482 1347.43 267.867C1287.3 234.251 1212.49 208.07 1130.36 210.302C1104.67 211.001 1084.97 216.392 1069.7 225.148C1054.42 233.905 1043.59 246.01 1035.61 260.085C1021.88 284.295 1016.54 314.382 1011.4 343.321C1010.57 347.989 1009.75 352.626 1008.9 357.204C1005.82 373.708 1002.38 389.447 996.957 403.099C991.539 416.747 984.164 428.278 973.257 436.393C951.457 452.612 915.328 455.339 851.863 433.455C756.351 400.521 702.299 348.157 656.504 303.792L656.503 303.791C641.466 289.223 627.319 275.518 612.887 263.646C583.698 239.636 553.351 223.157 512.163 222.379C471.002 221.601 419.082 236.507 346.735 275.096C274.486 313.632 226.07 314.756 190.742 295.222C155.363 275.66 132.945 235.304 112.898 190.45C108.056 179.615 103.353 168.519 98.6381 157.397L98.6379 157.396C83.8621 122.536 68.9783 87.4213 49.3769 59.3235C36.4396 40.7783 21.4264 25.2549 2.99837 14.8535C-15.436 4.44843 -37.2596 -0.815179 -63.787 1.11889L-63.7143 2.11624C-37.3702 0.195541 -15.7448 5.42239 2.50683 15.7243C20.7648 26.0297 35.6747 41.4297 48.5568 59.8956C68.0925 87.8993 82.9174 122.874 97.6838 157.71C102.406 168.851 107.123 179.978 111.985 190.858C132.025 235.697 154.554 276.356 190.259 296.097C226.015 315.868 274.821 314.587 347.205 275.978C419.492 237.421 471.233 222.606 512.144 223.379C553.028 224.151 583.164 240.492 612.252 264.419C626.603 276.224 640.701 289.882 655.706 304.42C701.522 348.807 755.793 401.386 851.537 434.4C915.061 456.305 951.63 453.731 973.854 437.195C984.959 428.932 992.427 417.221 997.886 403.468C1003.34 389.72 1006.81 373.898 1009.88 357.387C1010.73 352.825 1011.55 348.212 1012.37 343.574L1012.39 343.471C1017.53 314.518 1022.84 284.625 1036.48 260.578C1044.39 246.633 1055.1 234.669 1070.2 226.015C1085.3 217.359 1104.82 211.997 1130.39 211.302C1212.29 209.076 1286.92 235.184 1346.94 268.74C1406.96 302.297 1452.35 343.287 1475.77 370.78L1476.53 370.131ZM1351.81 312.374C1411.93 345.989 1457.42 387.055 1480.91 414.638L1480.15 415.286C1456.73 387.794 1411.34 346.804 1351.32 313.246C1291.3 279.69 1216.67 253.582 1134.77 255.808C1109.2 256.503 1089.68 261.866 1074.58 270.522C1059.48 279.176 1048.77 291.139 1040.86 305.085C1027.22 329.132 1021.91 359.024 1016.77 387.977L1016.75 388.08L1016.73 388.207C1015.91 392.802 1015.1 397.373 1014.26 401.893C1011.19 418.405 1007.72 434.226 1002.27 447.975C996.807 461.728 989.339 473.439 978.234 481.701C956.009 498.237 919.441 500.811 855.917 478.907C760.173 445.893 705.902 393.313 660.086 348.926C645.081 334.389 630.983 320.73 616.632 308.925C587.544 284.998 557.408 268.657 516.524 267.885C475.613 267.112 423.872 281.928 351.585 320.484C279.201 359.093 230.395 360.374 194.638 340.604C158.934 320.862 136.404 280.203 116.365 235.364C111.502 224.484 106.786 213.357 102.064 202.217C87.2971 167.38 72.4722 132.406 52.9365 104.402C40.0544 85.9361 25.1445 70.5361 6.88657 60.2307C-11.3651 49.9288 -32.9904 44.7019 -59.3345 46.6226L-59.4072 45.6253C-32.8799 43.6912 -11.0562 48.9548 7.37812 59.3598C25.8062 69.7613 40.8193 85.2847 53.7566 103.83C73.3581 131.928 88.2418 167.042 103.018 201.902L103.018 201.903C107.732 213.025 112.436 224.122 117.278 234.956C137.324 279.811 159.742 320.166 195.122 339.729C230.45 359.262 278.865 358.139 351.115 319.602C423.461 281.013 475.382 266.108 516.543 266.885C557.731 267.663 588.078 284.143 617.267 308.153C631.699 320.024 645.846 333.73 660.883 348.297L660.884 348.298C706.679 392.663 760.731 445.027 856.243 477.962C919.707 499.845 955.837 497.119 977.637 480.899C988.544 472.784 995.919 461.254 1001.34 447.606C1006.76 433.954 1010.2 418.215 1013.28 401.71C1014.13 397.132 1014.95 392.495 1015.78 387.828C1020.92 358.889 1026.26 328.801 1039.99 304.591C1047.97 290.516 1058.8 278.411 1074.08 269.654C1089.35 260.899 1109.05 255.507 1134.74 254.809C1216.87 252.576 1291.68 278.757 1351.81 312.374ZM1485.29 459.144C1461.8 431.561 1416.31 390.495 1356.19 356.88C1296.06 323.264 1221.25 297.083 1139.12 299.315C1113.43 300.013 1093.73 305.405 1078.46 314.16C1063.18 322.917 1052.35 335.022 1044.37 349.098C1030.64 373.307 1025.3 403.395 1020.16 432.334C1019.33 437.001 1018.51 441.639 1017.66 446.217C1014.58 462.721 1011.14 478.46 1005.72 492.112C1000.3 505.76 992.923 517.29 982.016 525.405C960.217 541.625 924.087 544.351 860.623 522.468C765.111 489.534 711.059 437.169 665.264 392.804L665.263 392.804C650.226 378.236 636.079 364.531 621.647 352.659C592.457 328.649 562.11 312.169 520.922 311.392C479.762 310.614 427.841 325.52 355.494 364.108C283.245 402.645 234.83 403.769 199.502 384.235C164.122 364.673 141.704 324.317 121.658 279.463C116.815 268.628 112.112 257.531 107.397 246.409C92.6215 211.549 77.7378 176.434 58.1364 148.336C45.199 129.791 30.1859 114.268 11.7579 103.866C-6.67648 93.4612 -28.5001 88.1976 -55.0275 90.1316L-54.9548 91.129C-28.6107 89.2083 -6.98536 94.4351 11.2663 104.737C29.5243 115.042 44.4341 130.442 57.3162 148.908C76.852 176.912 91.6769 211.886 106.443 246.723C111.166 257.864 115.882 268.991 120.745 279.871C140.784 324.71 163.314 365.368 199.018 385.11C234.774 404.881 283.58 403.599 355.965 364.991C428.252 326.434 479.993 311.619 520.904 312.391C561.787 313.164 591.923 329.505 621.011 353.432C635.362 365.236 649.461 378.895 664.466 393.432C710.281 437.82 764.553 490.399 860.297 523.413C923.821 545.317 960.389 542.743 982.613 526.208C993.718 517.945 1001.19 506.234 1006.65 492.481C1012.1 478.732 1015.57 462.911 1018.64 446.4C1019.49 441.838 1020.31 437.224 1021.13 432.585L1021.15 432.484C1026.29 403.531 1031.6 373.638 1045.24 349.591C1053.15 335.645 1063.86 323.682 1078.96 315.028C1094.06 306.372 1113.58 301.009 1139.15 300.315C1221.05 298.089 1295.68 324.197 1355.7 357.753C1415.72 391.31 1461.11 432.3 1484.53 459.792L1485.29 459.144ZM1489.67 503.65C1466.18 476.067 1420.69 435.001 1360.57 401.386C1300.44 367.77 1225.63 341.589 1143.5 343.821C1117.81 344.52 1098.11 349.911 1082.84 358.667C1067.56 367.424 1056.73 379.529 1048.75 393.604C1035.02 417.814 1029.68 447.902 1024.54 476.84C1023.71 481.508 1022.89 486.145 1022.04 490.723C1018.96 507.227 1015.52 522.967 1010.1 536.619C1004.68 550.267 997.303 561.797 986.396 569.912C964.596 586.131 928.467 588.858 865.003 566.974C769.491 534.04 715.438 481.676 669.643 437.311L669.643 437.31C654.605 422.742 640.459 409.037 626.026 397.166C596.837 373.155 566.49 356.676 525.302 355.898C484.141 355.121 432.221 370.026 359.874 408.615C287.625 447.151 239.209 448.275 203.882 428.741C168.502 409.179 146.084 368.824 126.037 323.969C121.197 313.139 116.495 302.047 111.783 290.929L111.778 290.917L111.777 290.915C97.0013 256.055 82.1176 220.94 62.5161 192.843C49.5788 174.297 34.5657 158.774 16.1376 148.373C-2.29674 137.968 -24.1204 132.704 -50.6478 134.638L-50.5751 135.635C-24.231 133.715 -2.60562 138.942 15.6461 149.243C33.904 159.549 48.8139 174.949 61.696 193.415C81.2317 221.418 96.0566 256.393 110.823 291.229C115.545 302.37 120.262 313.497 125.124 324.377C145.164 369.216 167.693 409.875 203.398 429.617C239.154 449.387 287.96 448.106 360.345 409.497C432.632 370.94 484.372 356.125 525.283 356.898C566.167 357.67 596.303 374.011 625.391 397.938C639.742 409.743 653.84 423.401 668.845 437.939C714.661 482.326 768.933 534.906 864.677 567.92C928.2 589.824 964.769 587.25 986.993 570.714C998.098 562.452 1005.57 550.74 1011.03 536.988C1016.48 523.239 1019.95 507.417 1023.02 490.906C1023.87 486.344 1024.69 481.73 1025.51 477.092L1025.53 476.99C1030.67 448.037 1035.98 418.145 1049.62 394.097C1057.53 380.152 1068.24 368.189 1083.34 359.534C1098.44 350.879 1117.96 345.516 1143.53 344.821C1225.43 342.595 1300.06 368.703 1360.08 402.259C1420.1 435.816 1465.49 476.806 1488.91 504.299L1489.67 503.65Z" fill="url(#paint0_linear_3_105)"/>
<defs>
<linearGradient id="paint0_linear_3_105" x1="158" y1="53.5" x2="1228" y2="294" gradientUnits="userSpaceOnUse">
<stop stop-color="#E7F6FF"/>
<stop offset="0.505208" stop-color="#150544"/>
<stop offset="0.979167" stop-color="#6552FF"/>
</linearGradient>
</defs>
</svg>
