<svg width="70" height="70" viewBox="0 0 70 70" fill="none" xmlns="http://www.w3.org/2000/svg">
<rect width="70" height="70" rx="26" fill="#614EF5"/>
<path d="M34.9999 53.1613C43.6242 53.1613 50.6378 46.1476 50.6378 37.5234V23.8969C50.6378 23.5332 50.4152 23.1992 50.0812 23.0582L35.3488 16.9129C35.1261 16.8164 34.8738 16.8164 34.6511 16.9129L19.9187 23.0582C19.5773 23.1992 19.3621 23.5332 19.3621 23.8969V37.5234C19.3621 46.1402 26.3757 53.1613 34.9999 53.1613ZM21.1804 24.5055L34.9999 18.7387L48.8195 24.5055V37.5234C48.8195 45.1457 42.6222 51.343 34.9999 51.343C27.3777 51.343 21.1804 45.1383 21.1804 37.5234V24.5055Z" fill="white"/>
<path d="M30.6877 42.6H39.312C40.4104 42.6 41.301 41.7093 41.301 40.6109V35.7793C41.301 34.755 40.5291 33.9164 39.5346 33.7976V31.8828C39.5346 29.3816 37.501 27.3406 34.9924 27.3406C32.4913 27.3406 30.4502 29.3742 30.4502 31.8828V33.7976C29.4557 33.9089 28.6838 34.755 28.6838 35.7793V40.6109C28.6987 41.7019 29.5893 42.6 30.6877 42.6ZM39.4827 40.6035C39.4827 40.7 39.401 40.7742 39.312 40.7742H30.6877C30.5913 40.7742 30.517 40.6925 30.517 40.6035V35.7718C30.517 35.6754 30.5987 35.6011 30.6877 35.6011H39.312C39.4084 35.6011 39.4827 35.6828 39.4827 35.7718V40.6035V40.6035ZM34.9999 29.1664C36.4991 29.1664 37.7237 30.3835 37.7237 31.8902V33.7902H32.2834V31.8828C32.276 30.3835 33.5006 29.1664 34.9999 29.1664Z" fill="white"/>
</svg>
