<svg width="70" height="70" viewBox="0 0 70 70" fill="none" xmlns="http://www.w3.org/2000/svg">
<rect width="70" height="70" rx="26" fill="#614EF5"/>
<path d="M29.9088 26.643C29.9088 27.1477 30.317 27.5559 30.8217 27.5559H39.1787C39.6834 27.5559 40.0916 27.1477 40.0916 26.643V23.3773H51.3729V46.7785H46.1107L48.4189 44.4703C48.7752 44.1141 48.7752 43.5426 48.4189 43.1863C48.0627 42.8301 47.4912 42.8301 47.135 43.1863L43.2756 47.0457C43.1049 47.2164 43.0084 47.4465 43.0084 47.6914C43.0084 47.9363 43.1049 48.1664 43.2756 48.3371L47.135 52.1965C47.3131 52.3746 47.5432 52.4637 47.7807 52.4637C48.0182 52.4637 48.2482 52.3746 48.4264 52.1965C48.7826 51.8402 48.7826 51.2687 48.4264 50.9125L46.1182 48.6043H52.2857C52.7904 48.6043 53.1986 48.1961 53.1986 47.6914V22.4645C53.1986 21.9598 52.7904 21.5516 52.2857 21.5516H40.0842V18.2859C40.0842 17.7812 39.676 17.373 39.1713 17.373H30.8143C30.3096 17.373 29.9014 17.7812 29.9014 18.2859V26.643H29.9088ZM31.7271 19.1988H38.2658V25.7375H31.7271V19.1988Z" fill="white"/>
<path d="M29.9087 30.8214V39.1785C29.9087 39.6832 30.3169 40.0914 30.8216 40.0914H39.1786C39.6833 40.0914 40.0915 39.6832 40.0915 39.1785V30.8214C40.0915 30.3168 39.6833 29.9086 39.1786 29.9086H30.8142C30.3169 29.916 29.9087 30.3168 29.9087 30.8214ZM31.7271 31.7343H38.2657V38.2656H31.7271V31.7343Z" fill="white"/>
<path d="M17.7293 48.441H29.9086V51.7067C29.9086 52.2113 30.3168 52.6195 30.8215 52.6195H39.1785C39.6832 52.6195 40.0914 52.2113 40.0914 51.7067V43.357C40.0914 42.8524 39.6832 42.4442 39.1785 42.4442H30.8141C30.3094 42.4442 29.9012 42.8524 29.9012 43.357V46.6227H18.6348V23.2215H23.882L21.5738 25.5297C21.2176 25.886 21.2176 26.4574 21.5738 26.8137C21.752 26.9918 21.982 27.0809 22.2195 27.0809C22.457 27.0809 22.6871 26.9918 22.8652 26.8137L26.7246 22.9543C27.0809 22.5981 27.0809 22.0266 26.7246 21.6703L22.8652 17.811C22.509 17.4547 21.9375 17.4547 21.5813 17.811C21.225 18.1672 21.225 18.7387 21.5813 19.0949L23.8895 21.4031H17.7293C17.2246 21.4031 16.8238 21.8113 16.8238 22.316V47.5356C16.8164 48.0328 17.2246 48.441 17.7293 48.441ZM31.727 44.2625H38.2656V50.8012H31.727V44.2625Z" fill="white"/>
</svg>
